<svg width="854" height="180" viewBox="0 0 854 180" fill="none" xmlns="http://www.w3.org/2000/svg">
<path d="M361.362 131.872L374.803 91.5518H394.259L372.755 148L360.467 180H340.499L353.299 148H350.099L328.595 91.5518H347.923L361.362 131.872ZM597.012 90.2715C604.18 90.2715 611.348 92.3199 616.34 98.4639V91.6797H635.54V148H616.34V141.216C612.5 146.976 604.18 149.28 597.012 149.28C581.012 149.28 568.979 135.456 568.979 119.84C568.98 104.224 581.012 90.2715 597.012 90.2715ZM750.215 90.2715C768.519 90.2716 780.167 101.152 781.062 114.208H761.99C761.734 108.704 757.51 105.248 750.854 105.248C742.151 105.248 739.335 113.568 739.335 119.968C739.335 126.496 741.895 134.687 750.854 134.688C756.742 134.688 761.35 132.128 761.99 127.008H780.679C778.759 139.552 767.367 149.28 750.215 149.28C730.631 149.28 718.854 135.968 718.854 119.84C718.855 103.712 731.399 90.2715 750.215 90.2715ZM822.376 90.2715C839.528 90.2716 853.735 100.512 853.735 118.56C853.735 119.711 853.607 120.992 853.607 122.144H809.832C809.832 128.671 814.439 135.584 821.991 135.584C828.775 135.584 833 131.104 833.128 127.008H852.712C849.384 141.856 837.352 149.28 822.376 149.28C802.92 149.28 789.479 137.76 789.479 119.84C789.48 102.176 803.432 90.2715 822.376 90.2715ZM94.1816 148H67.2725V139.43C76.5314 136.32 85.5784 132.619 94.1816 128.305V148ZM127.818 148H100.909V124.752C110.696 119.314 119.789 113.025 127.818 105.854V148ZM271.496 122.016L289.544 60.96H312.328L329.224 148H308.104L297.863 87.9678L280.84 148H262.023L245 87.9678L234.76 148H213.64L230.536 60.96H253.319L271.496 122.016ZM451.111 78.3682H419.88V95.6484H449.832V113.056H419.88V148H400.68V60.96H451.111V78.3682ZM485.02 148H465.819V91.5518H485.02V148ZM537.534 90.2715C552.638 90.2715 558.782 100.64 558.782 116V148H539.583V116C539.583 109.344 537.023 105.76 531.007 105.76C524.991 105.76 520.255 112.16 520.255 119.84V148H501.055V91.5518H520.255V98.4639C524.095 93.6001 530.11 90.2716 537.534 90.2715ZM687.409 90.2715C702.513 90.2715 708.657 100.64 708.657 116V148H689.458V116C689.458 109.344 686.898 105.76 680.882 105.76C674.866 105.76 670.13 112.16 670.13 119.84V148H650.93V91.5518H670.13V98.4639C673.97 93.6001 679.985 90.2716 687.409 90.2715ZM60.5449 147.999H33.9873C42.85 146.363 51.7665 144.228 60.5449 141.575V147.999ZM161.454 147.999H134.545V99.374C146.727 86.6782 155.709 71.5446 159.817 53.8174H161.454V147.999ZM161.454 21.5273C161.958 25.4639 162.117 29.5004 161.983 33.5264C158.343 112.102 68.9379 144.685 0 146.213V138.657C67.6616 139.113 155.032 111.125 161.584 33.5059C161.849 29.506 161.825 25.4783 161.454 21.5273ZM602.899 105.76C595.22 105.76 589.46 112.416 589.46 119.84C589.46 127.264 595.22 133.92 602.899 133.92C610.579 133.92 616.34 127.264 616.34 119.84C616.34 112.416 610.579 105.76 602.899 105.76ZM26.9092 132.347C17.7558 133.055 8.71443 133.253 0 132.999V80.7266H26.9092V132.347ZM60.5449 127.368C51.6515 129.359 42.6152 130.797 33.6357 131.735V40.3633H60.5449V127.368ZM94.1816 116.63C85.5808 120.338 76.5337 123.357 67.2725 125.749V13.4541H94.1816V116.63ZM127.818 96.1758C119.797 103.002 110.703 108.756 100.909 113.539V26.9082H127.818V96.1758ZM822.76 102.56C810.766 102.56 810.092 112.99 810.088 113.056H835.304C835.298 112.992 834.372 102.56 822.76 102.56ZM156.855 53.8174C152.14 67.992 144.402 79.9498 134.545 89.9355V53.8174H156.855ZM475.42 60.96C481.564 60.9601 486.683 65.9519 486.684 72.2236C486.684 78.3676 481.564 83.4881 475.42 83.4883C469.148 83.4883 464.155 78.3676 464.155 72.2236C464.155 65.9518 469.148 60.96 475.42 60.96ZM164.362 7.85645L172.219 10.7637L164.362 13.6709L161.455 21.5273L158.548 13.6709L150.691 10.7637L158.548 7.85645L161.455 0L164.362 7.85645Z" fill="url(#paint0_linear_558_28)"/>
<defs>
<linearGradient id="paint0_linear_558_28" x1="884" y1="-16.5" x2="-198" y2="275.5" gradientUnits="userSpaceOnUse">
<stop stop-color="#37FFB6"/>
<stop offset="1" stop-color="#B884F9"/>
</linearGradient>
</defs>
</svg>
